<svg width="96" height="96" viewBox="0 0 25.4 25.4" xml:space="preserve" xmlns="http://www.w3.org/2000/svg">
  <path style="fill:#000" d="M6.3694 25.3436c-1.8384-.2154-3.66-1.4456-4.8655-3.2857C.6355 20.7321.235 19.5377.0782 17.8067.004 16.9874.024 15.142.1165 14.2775c.0673-.6293.1855-1.1946.38-1.8181.1476-.4731.5372-1.5284.5849-1.5842.059-.0691.203-.0614.2494.0134.0563.0907 2.346 6.949 2.3455 7.0255-.0005.082-.0217.1161-.0977.1575-.0698.038-.096.0263-.4091-.1813-.1878-.1245-.6052-.3342-.6248-.3139-.0151.0156.0743.4628.1623.812.404 1.6032 1.3373 2.993 2.4882 3.7052.3341.2069.7622.3758 1.1742.4633.2701.0574.8595.0637 1.1393.0122.7005-.129 1.379-.5016 1.95-1.0707.5143-.5127.8544-1.0034 1.1969-1.7265.3363-.7103.5554-1.4404.69-2.2994l.0585-.3743.0076-5.4278.0076-5.4278-.1494-.0848c-.7473-.4246-1.3073-1.1463-1.5439-1.9898-.3613-1.2882.1038-2.693 1.161-3.5066 1.3756-1.0588 3.3646-.7565 4.4004.6686.9686 1.3328.8203 3.1592-.3514 4.3256-.2184.2174-.5951.498-.7678.5718l-.083.0355v5.2596c0 4.4425.006 5.3237.0384 5.6717.0596.6404.1724 1.2158.3402 1.7355.0718.2223.1821.3605.4627.5797.6483.5064 1.4066.5052 2.0968-.0034.206-.1518.5411-.5182.702-.7676.197-.3056.417-.7786.5265-1.1323.1015-.3276.1944-.7408.178-.7915-.005-.0154-.1072.0392-.2272.1212-.1537.105-.234.1445-.2713.1334-.061-.0181-.1435-.1085-.1435-.157 0-.0814 1.3773-4.6015 1.4153-4.6448.0585-.0667.1698-.0613.2343.0115.0642.0724.338.9225.4463 1.3855.1363.583.1607.8549.1746 1.95.014 1.105-.0127 1.5303-.136 2.1613-.2753 1.409-1.135 2.7612-2.2122 3.4793-.3544.2362-.8386.4383-1.2277.5123-.2028.0386-.2006.044.0965.2408.4275.2832.8957.4795 1.3383.561.2798.0515.8692.0453 1.1393-.0122.79-.1679 1.4522-.554 2.0763-1.2108.313-.3294.4663-.5263.7218-.9272.4265-.6694.7611-1.5064.9386-2.348.0991-.4703.1-.478.0531-.478-.0693 0-.4621.2017-.6617.3398-.2303.1594-.2636.1733-.3418.1426-.159-.0624-.2057.1 1.0502-3.6517.6397-1.9111 1.1803-3.5019 1.2013-3.535.0474-.0748.1912-.0825.25-.0134.022.0257.118.2574.2136.5147.5959 1.6057.7543 2.3602.816 3.8852.0766 1.8956-.0304 3.2482-.3496 4.4192-.2446.8973-.7124 1.8436-1.3335 2.6978-1.148 1.579-2.6557 2.5907-4.3318 2.9068-.267.0503-.4071.0595-.911.0594-.6402 0-.9543-.0393-1.4837-.1856-.7973-.2203-1.6888-.7074-2.3612-1.2902-.6507-.5639-1.3447-1.4244-1.7671-2.191-.0591-.1073-.1139-.195-.1217-.195-.0078.0001-.0842.1226-.1697.2722-.3328.5827-.7022 1.0776-1.1907 1.5955-1.0836 1.1487-2.3728 1.821-3.799 1.9809-.2896.0325-.902.0317-1.1855-.0015zm6.7894-21.073c.563-.2635.7827-.9812.4696-1.534-.0895-.158-.2972-.349-.4696-.4318-.1304-.0627-.1806-.0713-.42-.0717-.2418-.0005-.2883.0074-.4208.0715-.2077.1005-.416.3122-.5182.5266-.0783.1642-.0837.1938-.0837.4569 0 .2492.008.2987.0694.4342.1229.2706.3804.5078.65.5985.1775.0597.5427.0344.7233-.0501z"/>
</svg>
