<svg width="96" height="32" viewBox="0 0 25.4 8.5" xml:space="preserve" xmlns="http://www.w3.org/2000/svg">
  <path d="M37.4-3.5a31.2 31.2 0 0 1 29.8 19.7 32.6 32.6 0 0 1 0 24.6 32.9 32.9 0 0 1-29.7 19.7A31.1 31.1 0 0 1 14.8 51 31.9 31.9 0 0 1 37.4-3.5Zm.2 5.8C30.2 2.3 24 4.8 19 9.9a27.5 27.5 0 0 0-5.8 8.6 25.2 25.2 0 0 0 0 20 26.5 26.5 0 0 0 43 8.3c5-4.8 7.4-11 7.4-18.3A26.3 26.3 0 0 0 56.1 10a25.3 25.3 0 0 0-18.5-7.7Zm-.4 20.9-4.3 2.2c-.5-1-1-1.6-1.7-2-.7-.4-1.3-.6-1.9-.6-2.8 0-4.3 2-4.3 5.7 0 1.7.4 3 1.1 4.1.7 1 1.8 1.6 3.2 1.6 1.9 0 3.2-1 4-2.8l4 2a9.4 9.4 0 0 1-8.5 5c-2.8 0-5.2-.8-6.9-2.6a9.9 9.9 0 0 1-2.6-7.3c0-3 .9-5.5 2.6-7.3a9 9 0 0 1 6.7-2.6c4 0 6.8 1.5 8.6 4.6zm18.4 0-4.2 2.2c-.5-1-1-1.6-1.7-2-.7-.4-1.3-.6-2-.6-2.8 0-4.2 2-4.2 5.7 0 1.7.4 3 1 4.1.8 1 1.9 1.6 3.3 1.6 1.8 0 3.2-1 4-2.8l4 2c-1 1.6-2.1 2.8-3.6 3.7a9.2 9.2 0 0 1-4.9 1.3c-2.9 0-5.2-.8-7-2.6a10 10 0 0 1-2.5-7.3c0-3 .9-5.5 2.6-7.3a9 9 0 0 1 6.8-2.6c4 0 6.7 1.5 8.4 4.6z" style="stroke-width:2.24416" transform="matrix(.1179 0 0 .1179 -.6 .9)"/>
  <path d="M37.4-3.5c9 0 16.6 3 22.8 9.3a31 31 0 0 1 9.3 22.7c0 9-3 16.5-9.1 22.5a31.6 31.6 0 0 1-23 9.5A31 31 0 0 1 15 51.1a30.8 30.8 0 0 1-9.4-22.6c0-8.8 3.1-16.3 9.4-22.7a30.6 30.6 0 0 1 22.5-9.3Zm.2 5.8A25 25 0 0 0 19 9.9a25.7 25.7 0 0 0 0 37 25.3 25.3 0 0 0 18.5 7.8c7 0 13.3-2.6 18.6-7.9 5-4.8 7.5-11 7.5-18.3 0-7.3-2.5-13.5-7.6-18.6a25.2 25.2 0 0 0-18.5-7.6ZM46 20.6v13h-3.6v15.6h-10V33.6H29v-13c0-.6.2-1.1.6-1.5a2 2 0 0 1 1.4-.6h13.2c.5 0 1 .2 1.4.6.4.4.6.9.6 1.5zm-13-8.3c0-3 1.4-4.5 4.4-4.5 3 0 4.5 1.5 4.5 4.5s-1.5 4.5-4.5 4.5-4.5-1.5-4.5-4.5z" style="stroke-width:2.24431" transform="matrix(.1179 0 0 .1179 8.3 .9)"/>
  <path d="M37.4-3.5c9 0 16.6 3 22.8 9.3a30.8 30.8 0 0 1 9.3 22.7c0 9-3 16.5-9.1 22.5a31.6 31.6 0 0 1-45.5 0 30.7 30.7 0 0 1-9.4-22.5c0-8.8 3.1-16.3 9.4-22.7a30.6 30.6 0 0 1 22.5-9.3ZM12.7 19.9c-1 2.6-1.4 5.5-1.4 8.6 0 7 2.6 13.2 7.7 18.4a25.5 25.5 0 0 0 18.6 7.7c7.2 0 13.4-2.6 18.6-7.8 1.9-1.8 3.3-3.7 4.4-5.6l-12-5.4c-.5 2-1.5 3.7-3.1 5-1.7 1.2-3.6 2-5.8 2.2v4.9H36v-5c-3.5 0-6.8-1.3-9.7-3.8l4.4-4.4c2 2 4.5 2.9 7.1 2.9 1.1 0 2-.3 2.9-.8.8-.5 1.1-1.3 1.1-2.4 0-.8-.2-1.5-.8-2l-3.1-1.3-3.8-1.7-5-2.2ZM37.6 2.2C30.3 2.2 24 4.8 19 10a30.6 30.6 0 0 0-3.5 4.3l12.2 5.5c.5-1.7 1.5-3 3-4S34 14 36 14V9h3.7v5c3 .1 5.6 1.1 8 3l-4.1 4.2a9.5 9.5 0 0 0-5.5-1.8 6 6 0 0 0-2.7.5c-.8.4-1.2 1-1.2 2l.3.8 4 1.8 2.9 1.3 5.1 2.2L63 35.4c.6-2.3.8-4.6.8-6.9a25 25 0 0 0-7.6-18.6 25 25 0 0 0-18.5-7.7Z" style="stroke-width:2.24431" transform="matrix(.1179 0 0 .1179 17.2 .9)"/>
</svg>
