<svg class="social-icon" viewBox="0 0 16.93 16.93" xml:space="preserve" xmlns="http://www.w3.org/2000/svg">
  <path style="display:inline;fill:currentColor" d="m7.36 16.15-.22-.8h-.07a7.22 7.22 0 0 1-1.59-.52l-.06-.02a3127.46 3127.46 0 0 0-1.3 1.02A99.06 99.06 0 0 1 2.7 14.8l.3-.77.29-.76-.05-.05a7.05 7.05 0 0 1-1.02-1.38 1919.59 1919.59 0 0 1-1.66.07 143.56 143.56 0 0 1-.54-1.65v-.01L.7 9.8l.7-.45-.01-.05a6.98 6.98 0 0 1 0-1.72 711.52 711.52 0 0 0-1.38-.9l.54-1.66a339.72 339.72 0 0 1 1.67.06l.13-.22c.26-.42.56-.81.9-1.17l.03-.03-.3-.76-.3-.77 1.44-1.02.66.5.64.52.06-.03c.51-.23 1.05-.4 1.6-.51l.06-.01v-.01l.22-.8.22-.77h1.78l.22.78.21.8h.04a7.36 7.36 0 0 1 1.68.55 493.74 493.74 0 0 0 1.3-1.02l.72.5.72.52v.01l-.59 1.52.05.06c.37.4.71.85.99 1.33l.02.05a1706.17 1706.17 0 0 1 1.66-.08l.54 1.64.01.03-.7.44-.69.45v.05a6.94 6.94 0 0 1 0 1.73c.02 0 1.39.89 1.39.89l-.55 1.67a104.52 104.52 0 0 1-1.65-.08l-.02.02a8 8 0 0 1-1.01 1.37l-.04.04v.01l.3.76.29.76-1.45 1.03a325.69 325.69 0 0 1-1.29-1.02l-.05.02a7.15 7.15 0 0 1-1.63.52H9.8v.02l-.22.79-.21.77H7.57Zm1.3-2.58a5.24 5.24 0 0 0 4.58-3.1 5.04 5.04 0 0 0-1.98-6.32A5.25 5.25 0 0 0 3.9 6a5.02 5.02 0 0 0 .4 5.52 5.2 5.2 0 0 0 4.37 2.05z"/>
  <path style="fill:currentColor;stroke:none;stroke-width:1.2889;stroke-dasharray:none;stroke-opacity:.497934" d="m11.16 9.9-2.03-.06-1.2 1.63-.56-1.95-1.92-.63 1.67-1.14.01-2.02 1.6 1.24 1.93-.62-.68 1.9Z" transform="matrix(1.54198 .735 -.75208 1.50697 1.77 -10.53)"/>
</svg>
