<?xml version="1.0" encoding="UTF-8" standalone="no"?>
<?xml-stylesheet type="text/css" href="/style/common.css" ?>
<!-- Created with Inkscape (http://www.inkscape.org/) -->

<svg
   width="16.933332mm"
   height="16.933332mm"
   viewBox="0 0 16.933333 16.933333"
   version="1.1"
   id="svg1"
   xml:space="preserve"
   xmlns="http://www.w3.org/2000/svg"
   xmlns:svg="http://www.w3.org/2000/svg"><defs
     id="defs1" /><g
     id="layer1"
     transform="translate(-115.77967,-247.91949)"><path
       id="rect2"
       style="fill:#000000;fill-opacity:1;stroke-width:0.385762"
       d="M 117.43487 247.91949 C 116.51777 247.91949 115.77967 248.6576 115.77967 249.57469 L 115.77967 263.19763 C 115.77967 264.11472 116.51777 264.85282 117.43487 264.85282 L 131.05781 264.85282 C 131.9749 264.85282 132.713 264.11472 132.713 263.19763 L 132.713 249.57469 C 132.713 248.6576 131.9749 247.91949 131.05781 247.91949 L 117.43487 247.91949 z M 121.56795 251.42987 L 124.61065 251.42987 L 127.65336 251.42987 L 127.65336 251.96214 L 127.65336 252.4944 L 125.04784 256.39339 L 122.44231 260.29186 L 125.0313 260.30891 L 127.62029 260.32648 L 127.61099 260.49185 L 127.6022 260.65721 L 127.55621 261.03755 L 127.51074 261.41789 L 124.27424 261.41789 L 121.03878 261.41789 L 121.03878 260.90009 L 121.03878 260.38178 L 123.65102 256.48486 L 126.26327 252.58742 L 123.91561 252.56985 L 121.56795 252.5528 L 121.56795 251.99108 L 121.56795 251.42987 z "
       transform="translate(9.3750002e-7)" /></g></svg>
