<svg id="Layer_1" data-name="Layer 1" xmlns="http://www.w3.org/2000/svg" viewBox="0 0 153 175"><defs><style></style></defs><path class="cls-1" d="M115.48,173.58a3.82,3.82,0,0,0-.2-.81A4,4,0,0,0,115.48,173.58Z" transform="translate(-10.81)"/><path class="cls-1" d="M63.29,165.55c0,.16,0,.29,0,.34A1.55,1.55,0,0,0,63.29,165.55Z" transform="translate(-10.81)"/><path class="cls-1" d="M163.34,14.31c-2.52.09-3.62-3.36-2.22-4.59-1.21-1.45.23-4.59,2.69-4.32-2.7-.19-3.79-3.89-3-5.4-1.53,1.69-7.68,3.07-9.62,2.3-.62,5.59-6.94,7.08-11,3.51,2,4.26-3.74,5.53-5.66,4.86.56,2.5-1,7.12-4.3,7.63,1.17.86,2.18,5,.6,5.47-1.87-.2-2.24-1.76-4.44-2,.75,1.47-.63,5.23-2.49,5.94C30-23.62-39.44,121.15,57.73,163.18c-.21,1.85,2.2,3.61,3.57,3.31a3.15,3.15,0,0,1-.94-2.29l2.82,1a1.22,1.22,0,0,1,.11.34.83.83,0,0,1,0-.27,75,75,0,0,0,42.54.67c0,4.66.83,4.64,3.7,9.05,0-2.28-1.87-5.94,1.14-5.47.65,1.18.25,2.53,1.48,4.12-.26-2.48,2.37-2.44,3-.68-.28-2.17,2.5-1.85,2.76-.54.6-1.06-.9-3.74-1-4.45.21-.47,1-.14,1.42-.54.8.14.08-5.05.13-6.15C160.37,143.08,175,81.65,144.83,46.45a3.64,3.64,0,0,1,4.11-1.62c-.89-1.61,1.54-6.4,3.56-6.89-1-3.64-2.74-8.12,2.16-8.84-2.82-2.27-.39-6.43,4.1-5.33C156.07,20.23,160.63,15.32,163.34,14.31ZM91.66,166.9c.25-1.76,2.21-1.42,2.76-.27C93.47,166.76,92.53,166.83,91.66,166.9Zm3.29-.34a2.16,2.16,0,0,1,3.23-.47C97.11,166.29,96,166.43,95,166.56ZM100.41,154c.14,4.32-8.06-.82-9.09,5.94-.88,1.81-1.27,5.06,0,7a74,74,0,0,1-27.46-3.18c.76-.93,2.17-.63,2.82.61.47-2.26-1.16-5.42,2.56-5.2,2.09,2,1,5.1,6.06,4.39-.75-2.81,2.77-3.8,4.37-2.16-1-3,2.76-1.7,4.31-.07-1.13-2.93-.59-4.14-.87-6.48a8.75,8.75,0,0,0-1.35-3c-.82-1.42-.72-7.37-.54-10.67.14-2.77.81-5.6.34-8.37-.51-1.29.19-4.26,2-4.46-4.14-4.26.86-12.09.47-18.43-1.42-9.11,4-9,2.22-1.42,1.54,1.09,4.67,6,4,9.66C98.65,126.37,101.65,141.46,100.41,154ZM70.12,115.32c0-.07.13-2.1.54-6.15,0-.65.67-2.51,2.08-2.23.54.21.61,1.15.67,1.69.34,2.1,1.22,2.57,1.89,4.32s0,2.1-.74,9.46a22.52,22.52,0,0,0-.14,4.52c1,6.16,1.61,3.4.48,12.29-.88,7.69-1,8.3-.48,9.45.69.75,2.58,7.62-.94,6.14-1.8-4.88.25-7.82-1.55-13.91-1.4-6.05-1-6.08-.13-10.66.13-2.84-1-3.11-1.68-6.75C69.58,120.52,70.45,121.19,70.12,115.32ZM98.59,42.53c-.88-.6-.88-2.09-.74-3.3-3.28,3.47-5.21-2.63-2-4.46-4.1-.7-4.41,3.19-8.48.95-1.55,0-1.89,1.89-4.31,3-2.37,1.5-4.75.45-2.49-3.1-2.16,1.08-4.93,4.88-6.53,6.55-2.36,2.16-3.43,1.21-4.91,3-1.89,2.16-1.08,4.72-2.7,5.26-1.21.48-2-.74-2.89-.2-1.08.61.07,2.57-1,5.07-.87,2-2.09,1.89-2.36,3.64-.11,2.56.22,3-1.81,4.59-.7,2.33,2.26,4.26-1.08,6.08-2.52,3.77,2.38,9.83-5,10.19,1.24-5.36-.88-15.88-3.16-19.85-2.66,3-2.21,4.71-3.77,7.84a8.29,8.29,0,0,0-2.22,3.78c-1.05,3.89-2.35,4.06-5,3.64-.29.72-3,1.23-3.56.07-.47.47-.88,1-1.35,1.42-2.76-.67-4.64,2.87-5.79,4.18-5.1.17-4.88-6.66-7.94-8.71-1.06,9-1.36,11.17,3.1,18.5.18,4.45-6,12.54,3.77,13,5.65.6,6.47,8.51,12.31,2,1.23-.68,5.14-.18,5.52-.68,1.87-.72,2.84-5.36,5.66-4.38,1.87,2,.89,3.2-.68,6.27-1.11,2.62-2,3-3.56,1.69,2.62,4.44-4.91,6-5.32,2,.17,2.38-1.65,6.61,1.88,5.94,3,.14,3.57,2,5.12,1.69,5.08-2.22,3.14-11.35,5.11-13.5,2.88-1.48,2.62,1,4,2.7,2,1,5.93,1.57,5.59,4.79.13,2-.81,2.23-.54,3.65s1.35,1.75,1.35,3.3c-.46,1.82.45,2.75.94,4.53.27,1.08-.14,1,.07,2.56s1.36,4.24,1.68,5.54c.43,2.92-.31,4.06,1.55,7.16.25,5,.29,8.85.13,13.7-5.35.56-8.13,3-9.15,8.78-94.77-41-27.24-181.91,64.35-133a2.21,2.21,0,0,1-.61.21c1,1.08.15,6.46-1.41,7.42-.32,2-.21,5-1.21,5.88-1.51.63-3.25-1.07-3.51-1.89-.71,4.32,3,7.35.34,11.47,2.3,3.3,1,5.42.94,9-.65,1.14.4,4.37-.06,5.14-2.61,1.63-3.94-2-4-4.53-.26-4-.09-3.85-2.7-5.53-.7-1.37,1.3-5.69.41-7.57a2.06,2.06,0,0,1-2.76-3C102.92,44.87,104.31,42.25,98.59,42.53Zm-66.71,59c14.93,1.38,6.84-8.32,14.34-7.22,3,.67,3.61,4.47.41,6.21-1.24,3.17-3.69,4.68-7,3-2.45-.83-1.12,1.66-3,2.7C34,107.48,29,103.69,31.88,101.54Zm-1.21-4.32c-4.9,1.3-8.2-5.44-2.22-6.34C31.06,90.25,34.53,94.7,30.67,97.22Zm4.45.14c.53-.34,1.21.33,1.88,0,.7-1.12,1.79-2.24,3.16-1A1.88,1.88,0,0,1,40,98.91c-.47.47-.94.14-2.22.81-.61.34-.67.47-1.08.54C35.39,100.76,33.43,98.63,35.12,97.36Zm12.45-10.2c-1.26.69-3.6,2.75-4.71,3.24-.81.64-2.27,2.14-2.9,2-3.26-1.72.62-5,1.75-6.35.81-1,.54-1.08,1.08-1.55,1.88-1.44,4.87-1.7,6.46-.07C50.16,86.14,49.53,87.18,47.57,87.16ZM49.72,112c-.62,2-.42,2.89-1.68,3.91-.95.46-4.75.18-4.24-1.35a27.66,27.66,0,0,0,4.71-3.44C49.06,110.35,50.31,111,49.72,112Zm65,47.53c-1.19,2.74-7,1-8.22,4.59a40.28,40.28,0,0,1-5.25,1.42c.34-1.23-.33-3,0-3.72,1.27-1.34,4.81-2.34,4.51-4.86-1.79-1.74,0-4.47.68-8.71.31-4.35-.16-5.69,1.81-9,1.78-4.94-4-6.21-3.77-11.2-.53-2.77,1.94-2.3,2.29.13.15,1.13,2.56,4.88,3.57,6,.67,1.42.2,1.89.81,3.65,2.36,3.88,1.38,2.71,1.68,7.09,1,1.7,1.37,7.81,1.55,9.72C114.88,156.51,115.4,157.53,114.68,159.54ZM159.57,93.1a73.76,73.76,0,0,1-40.45,66.1c1.24-1.53-.08-2.23-.61-4.45-.67-3.07,1.63-11.51,1.82-16.61.54-2,1.41-2.57,1.08-3.58-2.07-1.84-7.39-5.17-4.85-9.12-4.1,1.54-2.7-6,.47-5.94a35.82,35.82,0,0,1-2.15-2.9c-.87-1.54.21-3.24,2.35-1.89-1.4-3.71,2.27-6.35,2.76-8.91-.4-1-1.3-1.79-.74-3.72.41-1.14,1.28-.94,1.68-2.09-.21-2.46,1.55-3,2-5.2-1.31-2.87-5-3.73-3-7.36,1-1.1,1.93-1.8,1.27-3.44-1.2-3.61-2.06-2.41,1-4.12.81-1,.14-1.89,1-3.51.41-.68.54-.54,1-1.42.68-1.21.34-1.62.88-2.36s5.34-1.85,5.45-3.71c-.29-4.27,2,2.2,5.45-8-3.36-.95-1.26-6.72,1.89-3.51,2.45-4,2.15-7.26,7.27-7.83a2.32,2.32,0,0,1-.34-.81A73.62,73.62,0,0,1,159.57,93.1Z" transform="translate(-10.81)"/><path d="M82.4,280" transform="translate(-10.81)"/></svg>